<svg width="103" height="128" viewBox="0 0 103 128" fill="none" xmlns="http://www.w3.org/2000/svg">
<g id="u:box">
<path id="Vector" d="M87.1338 34.4997C87.1033 34.3591 87.1033 34.2136 87.1338 34.073C87.1077 33.9499 87.1077 33.8228 87.1338 33.6997V33.2197L86.8113 32.4197C86.6803 32.2014 86.5172 32.0037 86.3275 31.833L85.8438 31.4063H85.575L64.3975 18.1263L44.4025 5.85968C43.9399 5.49557 43.4106 5.22389 42.8438 5.05968H42.4138C41.9334 4.98011 41.443 4.98011 40.9625 5.05968H40.425C39.8007 5.1967 39.2021 5.43069 38.6513 5.75301L-1.49997 30.553L-1.98372 30.9263L-2.46747 31.353L-3.00497 31.7263L-3.27372 32.0463L-3.59622 32.8463V33.3263V33.6463C-3.64843 34 -3.64843 34.3593 -3.59622 34.713V81.273C-3.59805 82.1794 -3.36705 83.0713 -2.92504 83.8644C-2.48302 84.6576 -1.84458 85.326 -1.06997 85.8063L39.2425 110.553L40.0488 110.873H40.4788C41.3881 111.159 42.3644 111.159 43.2738 110.873H43.7038L44.51 110.553L84.5 86.1797C85.2746 85.6993 85.9131 85.031 86.3551 84.2378C86.7971 83.4446 87.0281 82.5527 87.0263 81.6463V35.0863C87.0263 35.0863 87.1338 34.713 87.1338 34.4997ZM41.5 16.633L51.0675 22.4997L21.0213 40.953L11.4 35.0863L41.5 16.633ZM36.125 96.633L6.56253 78.713V44.633L36.125 62.7663V96.633ZM41.5 53.3797L31.2338 47.2463L61.28 28.7397L71.6 35.0863L41.5 53.3797ZM76.4375 78.553L46.875 96.793V62.7663L76.4375 44.633V78.553Z" fill="url(#paint0_linear_1_457)"/>
</g>
<defs>
<linearGradient id="paint0_linear_1_457" x1="36.5919" y1="5.00001" x2="81.9305" y2="24.396" gradientUnits="userSpaceOnUse">
<stop stop-color="#B7F476"/>
<stop offset="1" stop-color="#60AC34"/>
</linearGradient>
</defs>
</svg>
