<svg width="102" height="108" viewBox="0 0 102 108" fill="none" xmlns="http://www.w3.org/2000/svg">
<g id="u:chart-line">
<path id="Vector" d="M24.7917 72C26.5985 72 28.3312 71.2888 29.6088 70.023C30.8864 68.7571 31.6042 67.0402 31.6042 65.25C31.6263 65.0255 31.6263 64.7995 31.6042 64.575L44.2754 52.02H45.32H46.3646L53.6767 59.265C53.6767 59.265 53.6767 59.49 53.6767 59.625C53.6767 61.4152 54.3944 63.1321 55.672 64.398C56.9496 65.6638 58.6824 66.375 60.4892 66.375C62.296 66.375 64.0287 65.6638 65.3063 64.398C66.5839 63.1321 67.3017 61.4152 67.3017 59.625V59.265L83.8333 42.75C85.1807 42.75 86.4978 42.3541 87.6181 41.6124C88.7385 40.8707 89.6116 39.8165 90.1273 38.5831C90.6429 37.3497 90.7778 35.9925 90.5149 34.6831C90.2521 33.3738 89.6032 32.171 88.6505 31.227C87.6977 30.283 86.4839 29.6401 85.1624 29.3797C83.8409 29.1192 82.4711 29.2529 81.2263 29.7638C79.9815 30.2747 78.9175 31.1399 78.1689 32.2499C77.4204 33.3599 77.0208 34.665 77.0208 36C76.9987 36.2245 76.9987 36.4505 77.0208 36.675L60.6254 52.92H59.8987L52.0417 45C52.0417 43.2098 51.3239 41.4929 50.0463 40.227C48.7687 38.9612 47.036 38.25 45.2292 38.25C43.4224 38.25 41.6896 38.9612 40.412 40.227C39.1344 41.4929 38.4167 43.2098 38.4167 45L24.7917 58.5C22.9849 58.5 21.2521 59.2112 19.9745 60.477C18.6969 61.7429 17.9792 63.4598 17.9792 65.25C17.9792 67.0402 18.6969 68.7571 19.9745 70.023C21.2521 71.2888 22.9849 72 24.7917 72ZM86.1042 90H8.89583V13.5C8.89583 12.3065 8.41734 11.1619 7.56561 10.318C6.71388 9.47411 5.55869 9 4.35417 9C3.14964 9 1.99445 9.47411 1.14272 10.318C0.290995 11.1619 -0.1875 12.3065 -0.1875 13.5V94.5C-0.1875 95.6935 0.290995 96.8381 1.14272 97.682C1.99445 98.5259 3.14964 99 4.35417 99H86.1042C87.3087 99 88.4639 98.5259 89.3156 97.682C90.1673 96.8381 90.6458 95.6935 90.6458 94.5C90.6458 93.3065 90.1673 92.1619 89.3156 91.318C88.4639 90.4741 87.3087 90 86.1042 90Z" fill="url(#paint0_linear_1_477)"/>
</g>
<defs>
<linearGradient id="paint0_linear_1_477" x1="40.0682" y1="9" x2="82.8484" y2="30.5882" gradientUnits="userSpaceOnUse">
<stop stop-color="#B7F476"/>
<stop offset="1" stop-color="#60AC34"/>
</linearGradient>
</defs>
</svg>
