<svg width="23" height="23" viewBox="0 0 23 23" fill="none" xmlns="http://www.w3.org/2000/svg">
<path id="Vector" d="M14.628 7.7989L9.6945 12.7378L7.797 10.8427C7.69391 10.7224 7.56704 10.6248 7.42437 10.5558C7.28169 10.4869 7.12629 10.4481 6.96791 10.442C6.80954 10.4359 6.65161 10.4626 6.50403 10.5203C6.35646 10.5781 6.22243 10.6657 6.11036 10.7776C5.99828 10.8895 5.91059 11.0234 5.85277 11.1708C5.79495 11.3182 5.76827 11.4759 5.77439 11.6341C5.7805 11.7923 5.81929 11.9475 5.88832 12.09C5.95735 12.2325 6.05512 12.3592 6.1755 12.4622L8.878 15.1728C8.98546 15.2793 9.1129 15.3635 9.25301 15.4207C9.39312 15.4778 9.54316 15.5068 9.6945 15.5059C9.99619 15.5047 10.2853 15.385 10.4995 15.1728L16.2495 9.4299C16.3573 9.32312 16.4428 9.19609 16.5012 9.05612C16.5596 8.91616 16.5897 8.76603 16.5897 8.6144C16.5897 8.46277 16.5596 8.31265 16.5012 8.17268C16.4428 8.03272 16.3573 7.90568 16.2495 7.7989C16.034 7.58498 15.7426 7.4649 15.4388 7.4649C15.1349 7.4649 14.8435 7.58498 14.628 7.7989ZM11.5 0C9.22552 0 7.00211 0.673634 5.11095 1.93572C3.21978 3.1978 1.7458 4.99165 0.87539 7.09042C0.00498277 9.18919 -0.222756 11.4986 0.220974 13.7267C0.664704 15.9547 1.75997 18.0013 3.36828 19.6076C4.97658 21.2139 7.02568 22.3079 9.25646 22.751C11.4872 23.1942 13.7995 22.9668 15.9009 22.0974C18.0022 21.2281 19.7983 19.7559 21.0619 17.8671C22.3255 15.9782 23 13.7576 23 11.4859C23 9.97752 22.7025 8.48395 22.1246 7.09042C21.5467 5.69689 20.6996 4.43069 19.6317 3.36413C18.5639 2.29757 17.2961 1.45153 15.9009 0.87431C14.5056 0.297091 13.0102 0 11.5 0ZM11.5 20.6746C9.68042 20.6746 7.90169 20.1357 6.38876 19.126C4.87583 18.1163 3.69664 16.6812 3.00031 15.0022C2.30399 13.3232 2.1218 11.4757 2.47678 9.69324C2.83176 7.91081 3.70798 6.27354 4.99462 4.98848C6.28126 3.70342 7.92055 2.82828 9.70517 2.47373C11.4898 2.11918 13.3396 2.30115 15.0207 2.99662C16.7018 3.69209 18.1386 4.86983 19.1495 6.3809C20.1604 7.89198 20.7 9.66852 20.7 11.4859C20.7 13.9229 19.7307 16.26 18.0054 17.9833C16.2801 19.7065 13.94 20.6746 11.5 20.6746Z" fill="url(#paint0_linear_1_384)"/>
<defs>
<linearGradient id="paint0_linear_1_384" x1="10.1932" y1="1.12027e-06" x2="21.0606" y2="5.44037" gradientUnits="userSpaceOnUse">
<stop stop-color="#B7F476"/>
<stop offset="1" stop-color="#60AC34"/>
</linearGradient>
</defs>
</svg>
