<svg width="22" height="22" viewBox="0 0 22 22" fill="none" xmlns="http://www.w3.org/2000/svg">
<path id="Vector" d="M22 17.9163V22H17.9163V19.3279H16.5V17.9163H15.0838V16.5H13.6675V17.9163H11.0046V19.3279H8.3325V16.5H9.58375V15.0883H11.0046V13.6675H9.58375V12.4163H8.3325V11.0046H6.91625V9.58375H5.5V8.3325H4.08375V6.91625H2.67208V5.50458H1.41167V4.08375H0V0H4.08375V1.42083H5.5V2.8325H6.91625V4.08375H8.3325V5.50458H9.58375V6.91625H11.0046V8.3325H12.4163V9.58375H13.6675V11.0046H15.0838V9.58375H16.5V8.3325H19.3279V11.0046H17.9163V13.6675H16.5V15.0883H17.9163V16.5H19.3279V17.9163H22Z" fill="url(#paint0_linear_1_238)"/>
<defs>
<linearGradient id="paint0_linear_1_238" x1="9.75" y1="1.07288e-06" x2="20.15" y2="5.2" gradientUnits="userSpaceOnUse">
<stop stop-color="#B7F476"/>
<stop offset="1" stop-color="#60AC34"/>
</linearGradient>
</defs>
</svg>
