<svg width="107" height="120" viewBox="0 0 107 120" fill="none" xmlns="http://www.w3.org/2000/svg">
<g id="u:clock-ten">
<path id="Vector" d="M41.4583 4C31.4868 4 21.7393 6.93245 13.4483 12.4265C5.15734 17.9206 -1.30469 25.7295 -5.12061 34.8658C-8.93653 44.0021 -9.93495 54.0555 -7.98961 63.7545C-6.04427 73.4536 -1.24255 82.3627 5.80835 89.3553C12.8592 96.348 21.8426 101.11 31.6225 103.039C41.4024 104.969 51.5395 103.978 60.7519 100.194C69.9644 96.4096 77.8384 90.001 83.3782 81.7785C88.9181 73.5561 91.875 63.8891 91.875 54C91.875 47.4339 90.5709 40.9321 88.0372 34.8658C85.5036 28.7995 81.7899 23.2876 77.1083 18.6447C72.4267 14.0017 66.8688 10.3188 60.7519 7.80602C54.6351 5.29329 48.0791 4 41.4583 4ZM41.4583 94C33.4811 94 25.6831 91.654 19.0503 87.2588C12.4175 82.8635 7.24791 76.6164 4.19517 69.3073C1.14244 61.9983 0.343705 53.9556 1.89998 46.1964C3.45625 38.4372 7.29762 31.3098 12.9383 25.7157C18.5791 20.1216 25.7658 16.312 33.5897 14.7686C41.4136 13.2252 49.5233 14.0173 56.8932 17.0448C64.2632 20.0723 70.5624 25.1992 74.9942 31.7772C79.4261 38.3552 81.7916 46.0888 81.7916 54C81.7916 64.6087 77.5423 74.7828 69.9783 82.2843C62.4143 89.7857 52.1554 94 41.4583 94ZM41.4583 24C40.1212 24 38.8388 24.5268 37.8933 25.4645C36.9478 26.4022 36.4166 27.6739 36.4166 29V45.35L30.8708 42.15C29.7075 41.487 28.3263 41.3094 27.0309 41.6563C25.7356 42.0033 24.6323 42.8463 23.9637 44C23.2952 45.1537 23.1161 46.5235 23.4659 47.8082C23.8158 49.0928 24.6658 50.187 25.8291 50.85L38.9375 58.35H39.2904H39.7441C40.2706 58.6688 40.8516 58.8892 41.4583 59C42.0459 58.9833 42.626 58.8649 43.1725 58.65H43.5758C44.1016 58.4226 44.5802 58.1005 44.9875 57.7C45.2638 57.4031 45.5167 57.0855 45.7437 56.75C45.7437 56.75 45.7437 56.75 45.7437 56.45C45.8671 56.1579 45.9682 55.8571 46.0462 55.55C46.0699 55.2171 46.0699 54.8829 46.0462 54.55C46.0462 54.55 46.0462 54.55 46.0462 54.25V29C46.0514 27.7483 45.5829 26.5403 44.7334 25.6145C43.884 24.6888 42.7153 24.1126 41.4583 24Z" fill="url(#paint0_linear_1_463)"/>
</g>
<defs>
<linearGradient id="paint0_linear_1_463" x1="35.7291" y1="4" x2="83.2368" y2="27.9518" gradientUnits="userSpaceOnUse">
<stop stop-color="#B7F476"/>
<stop offset="1" stop-color="#60AC34"/>
</linearGradient>
</defs>
</svg>
