<svg width="115" height="91" viewBox="0 0 115 91" fill="none" xmlns="http://www.w3.org/2000/svg">
<path id="vector" d="M94.6644 9.96753C87.994 6.98413 80.8981 4.71976 73.5019 3.29944C72.7716 4.72005 72.0428 6.27831 71.484 7.58562L70.5738 9.71475L68.2835 9.37362C59.35 8.043 50.4749 8.04438 41.7426 9.37226L39.4276 9.7243L38.524 7.56403C37.9789 6.26095 37.2334 4.72143 36.4815 3.29604C29.0838 4.71273 21.9825 6.97849 15.3034 9.96819C0.76379 31.8567 -3.37905 53.1286 -1.62111 74.1827C7.38182 80.6092 16.1175 84.7203 24.711 87.5459C25.941 85.7794 27.0869 83.9611 28.1415 82.0909C25.7136 81.0427 23.3752 79.8581 21.1121 78.567L21.1018 78.5611L21.0915 78.5551C19.0111 77.3464 18.8087 74.3799 20.7677 72.9211C21.3657 72.4753 21.9564 72.017 22.5139 71.5598C23.5188 70.7325 24.8838 70.5749 26.027 71.0835L26.0377 71.0882L26.0484 71.0931C44.8993 79.6559 65.2457 79.6516 83.8494 71.1043C85.0489 70.5439 86.4071 70.7564 87.3717 71.5215L87.3908 71.5367L87.4096 71.5521C87.9757 72.0162 88.5654 72.478 89.1555 72.9147L89.1565 72.9154C91.0665 74.3298 90.9893 77.3083 88.8462 78.5545C88.8458 78.5547 88.8455 78.5549 88.8451 78.5551L87.338 75.9612C87.0864 76.1075 86.834 76.2519 86.5807 76.3944L94.6644 9.96753ZM94.6644 9.96753C107.377 28.8132 113.7 49.9264 111.605 74.1795L94.6644 9.96753ZM85.8308 73.3672L85.8298 73.3679L85.8308 73.3672ZM24.3462 77.7371L24.3539 77.7314C24.3513 77.7333 24.3488 77.7352 24.3462 77.7371ZM29.4962 79.5602L29.492 79.5686C29.4934 79.5658 29.4948 79.563 29.4962 79.5602ZM21.3157 50.038C21.3157 58.0157 27.2354 65.071 35.1001 65.071C43.068 65.071 48.8739 58.0106 48.8844 50.0596C48.988 42.0975 43.095 35.005 35.1001 35.005C27.1249 35.005 21.3157 42.0782 21.3157 50.038ZM61.1895 50.038C61.1895 58.0157 67.1092 65.071 74.9737 65.071C82.997 65.071 88.7477 58.0017 88.7582 50.0598C88.8618 42.0977 82.9689 35.005 74.9737 35.005C66.9984 35.005 61.1895 42.0782 61.1895 50.038Z" stroke="url(#paint0_linear_1_469)" stroke-width="6"/>
<defs>
<linearGradient id="paint0_linear_1_469" x1="48.1818" y1="4.43784e-06" x2="97.6051" y2="32.5868" gradientUnits="userSpaceOnUse">
<stop stop-color="#B7F476"/>
<stop offset="1" stop-color="#60AC34"/>
</linearGradient>
</defs>
</svg>
