<svg width="15" height="15" viewBox="0 0 15 15" fill="none" xmlns="http://www.w3.org/2000/svg">
<g id="u:arrow-to-bottom">
<path id="Vector" d="M11.875 12.5H3.125C2.95924 12.5 2.80027 12.5658 2.68306 12.6831C2.56585 12.8003 2.5 12.9592 2.5 13.125C2.5 13.2908 2.56585 13.4497 2.68306 13.5669C2.80027 13.6842 2.95924 13.75 3.125 13.75H11.875C12.0408 13.75 12.1997 13.6842 12.3169 13.5669C12.4342 13.4497 12.5 13.2908 12.5 13.125C12.5 12.9592 12.4342 12.8003 12.3169 12.6831C12.1997 12.5658 12.0408 12.5 11.875 12.5ZM7.05625 11.0687C7.11569 11.1256 7.18578 11.1703 7.2625 11.2C7.33731 11.2331 7.41821 11.2501 7.5 11.2501C7.58179 11.2501 7.66269 11.2331 7.7375 11.2C7.81422 11.1703 7.88431 11.1256 7.94375 11.0687L10.4437 8.56875C10.5614 8.45106 10.6276 8.29144 10.6276 8.125C10.6276 7.95856 10.5614 7.79894 10.4437 7.68125C10.3261 7.56356 10.1664 7.49744 10 7.49744C9.83356 7.49744 9.67394 7.56356 9.55625 7.68125L8.125 9.11875V1.875C8.125 1.70924 8.05915 1.55027 7.94194 1.43306C7.82473 1.31585 7.66576 1.25 7.5 1.25C7.33424 1.25 7.17527 1.31585 7.05806 1.43306C6.94085 1.55027 6.875 1.70924 6.875 1.875V9.11875L5.44375 7.68125C5.38548 7.62298 5.31629 7.57675 5.24016 7.54521C5.16402 7.51367 5.08241 7.49744 5 7.49744C4.91759 7.49744 4.83598 7.51367 4.75984 7.54521C4.68371 7.57675 4.61452 7.62298 4.55625 7.68125C4.49798 7.73952 4.45175 7.80871 4.42021 7.88484C4.38867 7.96098 4.37244 8.04259 4.37244 8.125C4.37244 8.20741 4.38867 8.28902 4.42021 8.36516C4.45175 8.44129 4.49798 8.51048 4.55625 8.56875L7.05625 11.0687Z" fill="url(#paint0_linear_1_427)"/>
</g>
<defs>
<linearGradient id="paint0_linear_1_427" x1="6.93182" y1="1.25" x2="12.0259" y2="3.28762" gradientUnits="userSpaceOnUse">
<stop stop-color="#B7F476"/>
<stop offset="1" stop-color="#60AC34"/>
</linearGradient>
</defs>
</svg>
