<svg width="87" height="29" viewBox="0 0 87 29" fill="none" xmlns="http://www.w3.org/2000/svg">
<g id="Group 1">
<path id="Vector 1" d="M2 17.0687V8.41221H40.1527V2H84.7176H85.0382M86 2H85.3588H85.0382M85.0382 2V7.45038" stroke="url(#paint0_linear_1_492)" stroke-width="3"/>
<g id="soMC">
<path d="M23.1603 28.9312H7.771V26.3664H18.0305V23.8015H7.771V16.1068H23.1603V18.6717H12.9008V21.2366H23.1603V28.9312Z" fill="white"/>
<path d="M23.1603 28.9312H7.771V26.3664H18.0305V23.8015H7.771V16.1068H23.1603V18.6717H12.9008V21.2366H23.1603V28.9312Z" fill="url(#paint1_linear_1_492)"/>
<path d="M28.2801 26.3664H25.7152V18.6717H28.2801V16.1068H38.5396V18.6717H41.1045V26.3664H38.5396V28.9312H28.2801V26.3664ZM35.9747 18.6717H30.8449V26.3664H35.9747V18.6717Z" fill="white"/>
<path d="M28.2801 26.3664H25.7152V18.6717H28.2801V16.1068H38.5396V18.6717H41.1045V26.3664H38.5396V28.9312H28.2801V26.3664ZM35.9747 18.6717H30.8449V26.3664H35.9747V18.6717Z" fill="url(#paint2_linear_1_492)"/>
<path d="M48.7891 13.5419H51.354V16.1068H56.4838V13.5419H59.0487V10.9771H64.1784V28.9312H59.0487V18.6717H56.4838V21.2366H51.354V18.6717H48.7891V28.9312H43.6594V10.9771H48.7891V13.5419Z" fill="white"/>
<path d="M48.7891 13.5419H51.354V16.1068H56.4838V13.5419H59.0487V10.9771H64.1784V28.9312H59.0487V18.6717H56.4838V21.2366H51.354V18.6717H48.7891V28.9312H43.6594V10.9771H48.7891V13.5419Z" fill="url(#paint3_linear_1_492)"/>
<path d="M69.3082 26.3664H66.7433V13.5419H69.3082V10.9771H79.5677V13.5419H82.1326V16.1068H77.0029V13.5419H71.8731V26.3664H77.0029V23.8015H82.1326V26.3664H79.5677V28.9312H69.3082V26.3664Z" fill="white"/>
<path d="M69.3082 26.3664H66.7433V13.5419H69.3082V10.9771H79.5677V13.5419H82.1326V16.1068H77.0029V13.5419H71.8731V26.3664H77.0029V23.8015H82.1326V26.3664H79.5677V28.9312H69.3082V26.3664Z" fill="url(#paint4_linear_1_492)"/>
</g>
</g>
<defs>
<linearGradient id="paint0_linear_1_492" x1="39.2273" y1="2" x2="44.8879" y2="17.7775" gradientUnits="userSpaceOnUse">
<stop stop-color="#B7F476"/>
<stop offset="1" stop-color="#60AC34"/>
</linearGradient>
<linearGradient id="paint1_linear_1_492" x1="41.8723" y1="5.84728" x2="57.7731" y2="27.5302" gradientUnits="userSpaceOnUse">
<stop stop-color="#B7F476"/>
<stop offset="1" stop-color="#60AC34"/>
</linearGradient>
<linearGradient id="paint2_linear_1_492" x1="41.8723" y1="5.84728" x2="57.7731" y2="27.5302" gradientUnits="userSpaceOnUse">
<stop stop-color="#B7F476"/>
<stop offset="1" stop-color="#60AC34"/>
</linearGradient>
<linearGradient id="paint3_linear_1_492" x1="41.8723" y1="5.84728" x2="57.7731" y2="27.5302" gradientUnits="userSpaceOnUse">
<stop stop-color="#B7F476"/>
<stop offset="1" stop-color="#60AC34"/>
</linearGradient>
<linearGradient id="paint4_linear_1_492" x1="41.8723" y1="5.84728" x2="57.7731" y2="27.5302" gradientUnits="userSpaceOnUse">
<stop stop-color="#B7F476"/>
<stop offset="1" stop-color="#60AC34"/>
</linearGradient>
</defs>
</svg>
