<svg width="24" height="22" viewBox="0 0 24 22" fill="none" xmlns="http://www.w3.org/2000/svg">
<path id="Vector" d="M22.22 3.14286V1.39464H21V0H14.22V1.39464H12.8V3.14286H11.2V1.39464H9.6V0H3V1.39464H1.6V3.14286H0V9.42857H1.6V12.5714H3V14.3196H4.6V15.9107H6.4V17.2857H8V18.8571H9.6V20.4286H11.2V22H12.8V20.4286H14.22V18.8571H16V17.2857H17.78V15.9107H19.2V14.3393H21V12.5714H22.24V9.42857H24V3.14286H22.22ZM8 3.14286H4.8V9.25179H3V3.14286H4.8V1.39464H8V3.14286Z" fill="url(#paint0_linear_1_232)"/>
<defs>
<linearGradient id="paint0_linear_1_232" x1="10.6364" y1="1.07288e-06" x2="21.5663" y2="5.96178" gradientUnits="userSpaceOnUse">
<stop stop-color="#B7F476"/>
<stop offset="1" stop-color="#60AC34"/>
</linearGradient>
</defs>
</svg>
