<svg width="84" height="107" viewBox="0 0 84 107" fill="none" xmlns="http://www.w3.org/2000/svg">
<g id="Group">
<path id="Vector" d="M38.4759 68.7322C33.4726 68.7322 29.3976 72.8072 29.3976 77.8105C29.3976 79.9324 31.1096 81.6443 33.2315 81.6443C35.3534 81.6443 37.0654 79.9324 37.0654 77.8105C37.0654 77.0268 37.6923 76.3999 38.4759 76.3999C39.2596 76.3999 39.8865 77.0268 39.8865 77.8105C39.8865 79.9324 41.5985 81.6443 43.7204 81.6443C45.8423 81.6443 47.5542 79.9324 47.5542 77.8105C47.5542 72.8072 43.4792 68.7322 38.4759 68.7322Z" fill="url(#paint0_linear_1_486)"/>
<path id="Vector_2" d="M30.9726 55.0606C30.9726 60.6512 26.4404 65.1834 20.8497 65.1834C15.2591 65.1834 10.7269 60.6512 10.7269 55.0606C10.7269 49.4699 15.2591 44.9377 20.8497 44.9377C26.4404 44.9377 30.9726 49.4699 30.9726 55.0606Z" stroke="url(#paint1_linear_1_486)" stroke-width="5"/>
<path id="Vector_3" d="M66.2249 55.0606C66.2249 60.6512 61.6927 65.1834 56.1021 65.1834C50.5114 65.1834 45.9792 60.6512 45.9792 55.0606C45.9792 49.4699 50.5114 44.9377 56.1021 44.9377C61.6927 44.9377 66.2249 49.4699 66.2249 55.0606Z" stroke="url(#paint2_linear_1_486)" stroke-width="5"/>
<path id="Vector_4" d="M83.9638 45.078C83.9638 38.9897 82.7703 33.0942 80.4193 27.5363C78.1528 22.1592 74.8976 17.3488 70.7623 13.2015C66.6271 9.06624 61.8046 5.81108 56.4396 3.54452C50.8817 1.19356 44.9742 0 38.8979 0H38.066C31.9776 0 26.0821 1.19356 20.5242 3.54452C15.1592 5.81108 10.3368 9.06624 6.20151 13.2015C2.06624 17.3368 -1.18892 22.1592 -3.45548 27.5242C-5.80644 33.0821 -7 38.9897 -7 45.066V45.8979C-7 55.4825 -3.94979 64.7658 1.65633 72.4456C0.0890307 74.3745 -0.803125 76.7978 -0.803125 79.402V79.5466C-0.803125 85.6229 4.1399 90.566 10.2162 90.566H14.1345V102.779C14.1345 104.901 15.8464 106.613 17.9683 106.613H59.0317C61.1536 106.613 62.8655 104.901 62.8655 102.779V90.566H66.7838C72.8601 90.566 77.8031 85.6229 77.8031 79.5466V79.402C77.8031 76.8099 76.911 74.3745 75.3437 72.4456C80.9498 64.7658 84 55.4705 84 45.8979V45.078H83.9638ZM76.2961 45.9099C76.2961 54.952 73.0289 63.6687 67.0972 70.4804C66.3136 71.3726 66.0001 72.5782 66.2292 73.7356C66.4583 74.893 67.2057 75.8936 68.2667 76.4241C69.4 77.0028 70.1113 78.1481 70.1113 79.414V79.5587C70.1113 81.4033 68.6043 82.9103 66.7597 82.9103H59.0076C56.8857 82.9103 55.1737 84.6223 55.1737 86.7442V98.9571H48.1329V94.0984C48.1329 92.3382 46.6982 90.9035 44.938 90.9035C43.1778 90.9035 41.7431 92.3262 41.7431 94.0984V98.9571H35.2087V94.0984C35.2087 92.3382 33.774 90.9035 32.0138 90.9035C30.2536 90.9035 28.8189 92.3382 28.8189 94.0984V98.9571H21.7781V86.7321C21.7781 84.6102 20.0661 82.8982 17.9442 82.8982H10.1921C8.34751 82.8982 6.84049 81.3912 6.84049 79.5466V79.402C6.84049 78.1361 7.5518 76.9787 8.68508 76.412C9.74603 75.8816 10.4935 74.893 10.7226 73.7235C10.9516 72.5661 10.6261 71.3605 9.85453 70.4683C3.92289 63.6687 0.655671 54.94 0.655671 45.8979V45.066C0.655671 35.0714 4.54982 25.6796 11.6147 18.6147C18.6797 11.5498 28.0714 7.65567 38.066 7.65567H38.8979C48.8924 7.65567 58.2842 11.5498 65.3491 18.6147C72.414 25.6796 76.3082 35.0714 76.3082 45.066V45.9099H76.2961Z" fill="url(#paint3_linear_1_486)"/>
</g>
<defs>
<linearGradient id="paint0_linear_1_486" x1="37.4443" y1="68.7322" x2="44.6241" y2="73.7801" gradientUnits="userSpaceOnUse">
<stop stop-color="#B7F476"/>
<stop offset="1" stop-color="#60AC34"/>
</linearGradient>
<linearGradient id="paint1_linear_1_486" x1="19.4153" y1="42.4377" x2="31.3496" y2="48.4049" gradientUnits="userSpaceOnUse">
<stop stop-color="#B7F476"/>
<stop offset="1" stop-color="#60AC34"/>
</linearGradient>
<linearGradient id="paint2_linear_1_486" x1="54.6676" y1="42.4377" x2="66.6019" y2="48.4049" gradientUnits="userSpaceOnUse">
<stop stop-color="#B7F476"/>
<stop offset="1" stop-color="#60AC34"/>
</linearGradient>
<linearGradient id="paint3_linear_1_486" x1="33.3295" y1="5.19923e-06" x2="78.8172" y2="19.4131" gradientUnits="userSpaceOnUse">
<stop stop-color="#B7F476"/>
<stop offset="1" stop-color="#60AC34"/>
</linearGradient>
</defs>
</svg>
