<svg width="134" height="20" viewBox="0 0 134 20" fill="none" xmlns="http://www.w3.org/2000/svg">
<g id="socials">
<path id="vector" d="M53.2378 5.16052C52.0905 4.62337 50.8602 4.22761 49.5739 4.00095C49.5505 3.99658 49.5271 4.00751 49.515 4.02937C49.3568 4.31653 49.1815 4.69115 49.0588 4.98559C47.6753 4.77424 46.2989 4.77424 44.9437 4.98559C44.821 4.6846 44.6394 4.31653 44.4804 4.02937C44.4684 4.00824 44.445 3.99731 44.4215 4.00095C43.1359 4.22689 41.9057 4.62264 40.7577 5.16052C40.7478 5.1649 40.7392 5.17219 40.7336 5.18166C38.4 8.73909 37.7608 12.2091 38.0744 15.636C38.0758 15.6528 38.085 15.6688 38.0978 15.679C39.6374 16.8328 41.1288 17.5332 42.5925 17.9974C42.6159 18.0047 42.6407 17.996 42.6556 17.9763C43.0018 17.4938 43.3105 16.9851 43.5751 16.4501C43.5907 16.4188 43.5758 16.3816 43.5439 16.3692C43.0543 16.1797 42.5882 15.9487 42.1398 15.6863C42.1043 15.6652 42.1015 15.6134 42.1341 15.5887C42.2285 15.5165 42.3229 15.4414 42.413 15.3656C42.4293 15.3518 42.452 15.3489 42.4711 15.3576C45.417 16.73 48.6062 16.73 51.5172 15.3576C51.5364 15.3481 51.5591 15.3511 51.5761 15.3649C51.6662 15.4407 51.7606 15.5165 51.8557 15.5887C51.8883 15.6134 51.8862 15.6652 51.8507 15.6863C51.4023 15.9538 50.9361 16.1797 50.4459 16.3685C50.414 16.3809 50.3998 16.4188 50.4154 16.4501C50.6857 16.9844 50.9943 17.4931 51.3342 17.9756C51.3484 17.996 51.3739 18.0047 51.3973 17.9974C52.8681 17.5332 54.3595 16.8328 55.8991 15.679C55.9126 15.6688 55.9211 15.6535 55.9225 15.6368C56.2978 11.6748 55.2939 8.23329 53.2612 5.18238C53.2562 5.17219 53.2477 5.1649 53.2378 5.16052ZM44.015 13.5494C43.1281 13.5494 42.3973 12.7185 42.3973 11.6982C42.3973 10.6778 43.114 9.84693 44.015 9.84693C44.9232 9.84693 45.6469 10.6851 45.6327 11.6982C45.6327 12.7185 44.9161 13.5494 44.015 13.5494ZM49.9961 13.5494C49.1092 13.5494 48.3784 12.7185 48.3784 11.6982C48.3784 10.6778 49.095 9.84693 49.9961 9.84693C50.9042 9.84693 51.6279 10.6851 51.6137 11.6982C51.6137 12.7185 50.9042 13.5494 49.9961 13.5494Z" fill="#454556"/>
<path id="Vector" d="M134 10.0607C134 4.504 129.523 0 124 0C118.477 0 114 4.504 114 10.0607C114 15.0833 117.656 19.2453 122.437 20V12.9693H119.899V10.06H122.437V7.844C122.437 5.32267 123.93 3.92933 126.215 3.92933C127.308 3.92933 128.453 4.126 128.453 4.126V6.602H127.191C125.949 6.602 125.563 7.378 125.563 8.174V10.0607H128.336L127.893 12.9687H125.563V20C130.344 19.2453 134 15.0833 134 10.0607Z" fill="#454556"/>
<path id="vector_2" d="M92.1572 5.98316C92.1682 6.15675 92.1682 6.33034 92.1682 6.50553C92.1682 11.8436 88.4534 18 81.6607 18V17.9968C79.6541 18 77.6892 17.3712 76 16.1857C76.2918 16.2241 76.585 16.2433 76.879 16.2441C78.5419 16.2457 80.1572 15.6353 81.4654 14.5114C79.8852 14.4786 78.4995 13.3515 78.0154 11.706C78.5689 11.8228 79.1393 11.7988 79.6826 11.6364C77.9598 11.2556 76.7203 9.59973 76.7203 7.67665C76.7203 7.65905 76.7203 7.64225 76.7203 7.62545C77.2336 7.93824 77.8084 8.11182 78.3963 8.13102C76.7737 6.9447 76.2735 4.58325 77.2534 2.73696C79.1283 5.2608 81.8947 6.79511 84.8644 6.9575C84.5667 5.55439 84.9733 4.08408 85.9327 3.09774C87.4201 1.56824 89.7594 1.64663 91.1576 3.27293C91.9846 3.09454 92.7773 2.76256 93.5027 2.29219C93.2271 3.22733 92.6501 4.02168 91.8793 4.52645C92.6113 4.43206 93.3265 4.21767 94 3.89049C93.5042 4.70324 92.8797 5.41119 92.1572 5.98316Z" fill="#454556"/>
<path id="vector_3" fill-rule="evenodd" clip-rule="evenodd" d="M16.0128 4.39286C16.7869 4.60714 17.3992 5.2381 17.6072 6.03571C17.9884 7.48809 18 10.5 18 10.5C18 10.5 18 13.5238 17.6187 14.9643C17.4108 15.7619 16.7985 16.3929 16.0244 16.6071C14.6264 17 9 17 9 17C9 17 3.37356 17 1.97561 16.6071C1.20154 16.3929 0.589218 15.7619 0.381258 14.9643C0 13.5119 0 10.5 0 10.5C0 10.5 0 7.48809 0.369704 6.04762C0.577664 5.25 1.18999 4.61905 1.96406 4.40476C3.362 4.0119 8.98845 4 8.98845 4C8.98845 4 14.6149 4 16.0128 4.39286ZM11.8652 10.5L7.19769 13.2857V7.71429L11.8652 10.5Z" fill="#454556"/>
</g>
</svg>
