<svg width="19" height="19" viewBox="0 0 19 19" fill="none" xmlns="http://www.w3.org/2000/svg">
<g id="u:bullseye" clip-path="url(#clip0_1_228)">
<path id="Vector" d="M9.5 3.95841C8.40396 3.95841 7.33254 4.28343 6.42122 4.89235C5.50989 5.50128 4.7996 6.36677 4.38017 7.37938C3.96073 8.39198 3.85099 9.50623 4.06482 10.5812C4.27864 11.6562 4.80644 12.6436 5.58145 13.4186C6.35647 14.1936 7.3439 14.7214 8.41888 14.9353C9.49385 15.1491 10.6081 15.0394 11.6207 14.6199C12.6333 14.2005 13.4988 13.4902 14.1077 12.5789C14.7167 11.6675 15.0417 10.5961 15.0417 9.50008C15.0417 8.03034 14.4578 6.6208 13.4186 5.58153C12.3793 4.54227 10.9697 3.95841 9.5 3.95841ZM9.5 13.4584C8.71712 13.4584 7.95181 13.2263 7.30087 12.7913C6.64992 12.3564 6.14258 11.7382 5.84298 11.0149C5.54338 10.2916 5.46499 9.49569 5.61773 8.72785C5.77046 7.96001 6.14745 7.2547 6.70104 6.70112C7.25462 6.14753 7.95993 5.77054 8.72777 5.61781C9.49561 5.46507 10.2915 5.54346 11.0148 5.84306C11.7381 6.14266 12.3563 6.65 12.7912 7.30095C13.2262 7.95189 13.4583 8.7172 13.4583 9.50008C13.4583 10.5499 13.0413 11.5567 12.299 12.299C11.5566 13.0414 10.5498 13.4584 9.5 13.4584ZM9.5 7.12508C9.03027 7.12508 8.57109 7.26437 8.18052 7.52534C7.78996 7.78631 7.48555 8.15723 7.30579 8.59121C7.12603 9.02518 7.079 9.50272 7.17064 9.96342C7.26228 10.4241 7.48847 10.8473 7.82062 11.1795C8.15277 11.5116 8.57596 11.7378 9.03666 11.8294C9.49737 11.9211 9.9749 11.8741 10.4089 11.6943C10.8428 11.5145 11.2138 11.2101 11.4747 10.8196C11.7357 10.429 11.875 9.96981 11.875 9.50008C11.875 8.87019 11.6248 8.2661 11.1794 7.8207C10.734 7.3753 10.1299 7.12508 9.5 7.12508ZM9.5 10.2917C9.34342 10.2917 9.19036 10.2453 9.06017 10.1583C8.92999 10.0713 8.82852 9.9477 8.7686 9.80304C8.70868 9.65838 8.693 9.4992 8.72355 9.34564C8.75409 9.19207 8.82949 9.05101 8.94021 8.94029C9.05093 8.82957 9.19199 8.75417 9.34556 8.72363C9.49912 8.69308 9.6583 8.70876 9.80296 8.76868C9.94762 8.8286 10.0713 8.93007 10.1582 9.06026C10.2452 9.19044 10.2917 9.3435 10.2917 9.50008C10.2917 9.71004 10.2083 9.91141 10.0598 10.0599C9.91133 10.2083 9.70996 10.2917 9.5 10.2917ZM9.5 0.791748C7.77766 0.791748 6.09399 1.30248 4.66191 2.25937C3.22983 3.21625 2.11366 4.57631 1.45455 6.16755C0.795437 7.75879 0.622983 9.50974 0.958996 11.199C1.29501 12.8882 2.1244 14.4399 3.34228 15.6578C4.56016 16.8757 6.11184 17.7051 7.80109 18.0411C9.49034 18.3771 11.2413 18.2046 12.8325 17.5455C14.4238 16.8864 15.7838 15.7703 16.7407 14.3382C17.6976 12.9061 18.2083 11.2224 18.2083 9.50008C18.2083 7.19049 17.2909 4.97549 15.6577 3.34236C14.0246 1.70923 11.8096 0.791748 9.5 0.791748ZM9.5 16.6251C8.09081 16.6251 6.71326 16.2072 5.54156 15.4243C4.36986 14.6414 3.45663 13.5286 2.91736 12.2267C2.37809 10.9248 2.23699 9.49218 2.51191 8.11006C2.78683 6.72795 3.46542 5.45839 4.46187 4.46195C5.45831 3.4655 6.72787 2.78691 8.10998 2.51199C9.4921 2.23707 10.9247 2.37817 12.2266 2.91744C13.5285 3.45671 14.6413 4.36994 15.4242 5.54164C16.2071 6.71334 16.625 8.09089 16.625 9.50008C16.625 11.3897 15.8743 13.202 14.5381 14.5382C13.2019 15.8744 11.3897 16.6251 9.5 16.6251Z" fill="url(#paint0_linear_1_228)"/>
</g>
<defs>
<linearGradient id="paint0_linear_1_228" x1="8.51042" y1="0.791749" x2="16.7438" y2="4.90842" gradientUnits="userSpaceOnUse">
<stop stop-color="#B7F476"/>
<stop offset="1" stop-color="#60AC34"/>
</linearGradient>
<clipPath id="clip0_1_228">
<rect width="19" height="19" fill="white"/>
</clipPath>
</defs>
</svg>
