<svg width="102" height="114" viewBox="0 0 102 114" fill="none" xmlns="http://www.w3.org/2000/svg">
<g id="u:users-alt">
<path id="Vector" d="M45.9375 52.42C48.4942 50.2261 50.5449 47.5127 51.9504 44.4639C53.3559 41.415 54.0833 38.1021 54.0833 34.75C54.0833 28.4511 51.5591 22.4102 47.0661 17.9562C42.573 13.5022 36.4791 11 30.125 11C23.7708 11 17.6769 13.5022 13.1839 17.9562C8.6908 22.4102 6.16663 28.4511 6.16663 34.75C6.16659 38.1021 6.89401 41.415 8.29952 44.4639C9.70503 47.5127 11.7557 50.2261 14.3125 52.42C7.60479 55.431 1.91386 60.2933 -2.07993 66.4256C-6.07371 72.5579 -8.20132 79.7007 -8.20837 87C-8.20837 88.2598 -7.70354 89.468 -6.80493 90.3588C-5.90632 91.2496 -4.68754 91.75 -3.41671 91.75C-2.14588 91.75 -0.927099 91.2496 -0.0284872 90.3588C0.870125 89.468 1.37496 88.2598 1.37496 87C1.37496 79.4413 4.40397 72.1922 9.79564 66.8475C15.1873 61.5027 22.5 58.5 30.125 58.5C37.7499 58.5 45.0626 61.5027 50.4543 66.8475C55.8459 72.1922 58.875 79.4413 58.875 87C58.875 88.2598 59.3798 89.468 60.2784 90.3588C61.177 91.2496 62.3958 91.75 63.6666 91.75C64.9375 91.75 66.1562 91.2496 67.0548 90.3588C67.9535 89.468 68.4583 88.2598 68.4583 87C68.4512 79.7007 66.3236 72.5579 62.3298 66.4256C58.3361 60.2933 52.6451 55.431 45.9375 52.42ZM30.125 49C27.2819 49 24.5026 48.1643 22.1386 46.5984C19.7747 45.0326 17.9322 42.8071 16.8442 40.2032C15.7562 37.5994 15.4715 34.7342 16.0262 31.97C16.5808 29.2057 17.9499 26.6666 19.9603 24.6737C21.9707 22.6808 24.5321 21.3237 27.3205 20.7738C30.109 20.224 32.9993 20.5062 35.626 21.5847C38.2527 22.6633 40.4978 24.4897 42.0773 26.8331C43.6569 29.1765 44.5 31.9316 44.5 34.75C44.5 38.5293 42.9855 42.1539 40.2896 44.8263C37.5938 47.4987 33.9374 49 30.125 49ZM76.7958 50.52C79.8623 47.0968 81.8654 42.868 82.564 38.3426C83.2626 33.8172 82.6269 29.1881 80.7334 25.0125C78.8399 20.8369 75.7694 17.2928 71.8914 14.8068C68.0134 12.3207 63.4932 10.9988 58.875 11C57.6041 11 56.3854 11.5004 55.4867 12.3912C54.5881 13.282 54.0833 14.4902 54.0833 15.75C54.0833 17.0098 54.5881 18.218 55.4867 19.1088C56.3854 19.9996 57.6041 20.5 58.875 20.5C62.6874 20.5 66.3438 22.0013 69.0396 24.6737C71.7355 27.3461 73.25 30.9707 73.25 34.75C73.2432 37.2449 72.5758 39.6943 71.3144 41.8533C70.0531 44.0122 68.2421 45.8051 66.0625 47.0525C65.352 47.4587 64.7587 48.0389 64.3392 48.7375C63.9197 49.4361 63.6881 50.2298 63.6666 51.0425C63.6466 51.8489 63.834 52.647 64.2113 53.3617C64.5885 54.0764 65.1431 54.6841 65.8229 55.1275L67.6916 56.3625L68.3145 56.695C74.0904 59.4107 78.9631 63.706 82.3588 69.075C85.7545 74.444 87.5317 80.6632 87.4812 87C87.4812 88.2598 87.986 89.468 88.8847 90.3588C89.7833 91.2496 91.002 91.75 92.2729 91.75C93.5437 91.75 94.7625 91.2496 95.6611 90.3588C96.5597 89.468 97.0645 88.2598 97.0645 87C97.1037 79.7108 95.262 72.5327 91.7145 66.1478C88.167 59.7629 83.0314 54.3832 76.7958 50.52Z" fill="url(#paint0_linear_1_448)"/>
</g>
<defs>
<linearGradient id="paint0_linear_1_448" x1="38.4469" y1="11" x2="82.1039" y2="39.4577" gradientUnits="userSpaceOnUse">
<stop stop-color="#B7F476"/>
<stop offset="1" stop-color="#60AC34"/>
</linearGradient>
</defs>
</svg>
